<svg width="35" height="22" viewBox="0 0 35 22" fill="none" xmlns="http://www.w3.org/2000/svg">
<path fill-rule="evenodd" clip-rule="evenodd" d="M34.4051 17.17C33.5967 15.6173 32.5316 14.1989 31.2507 12.9691C30.8216 12.5077 30.373 12.0632 29.906 11.6368L29.8495 11.5843C29.6759 11.4239 29.5046 11.2614 29.3354 11.0968C31.0869 8.77356 32.5854 6.28605 33.8078 3.67283L33.8569 3.56795L33.891 3.45739C34.053 2.9429 34.2372 1.96495 33.5835 1.08054C32.9059 0.167782 31.8227 0.00337242 31.0961 0.00337242H27.7574C27.0582 -0.0274553 26.3668 0.153699 25.7822 0.520858C25.1976 0.888017 24.7499 1.42232 24.5034 2.04716C23.7849 3.67943 22.8853 5.23364 21.8199 6.68323V2.95141C21.8199 2.46952 21.7723 1.66164 21.23 0.981327C20.5822 0.164948 19.6446 0.00337242 18.9938 0.00337242H13.6952C13.0038 -0.0118024 12.3327 0.227255 11.821 0.671038C11.3093 1.11482 10.9961 1.72933 10.9463 2.38731L10.9419 2.45109V2.51487C10.9419 3.20228 11.2272 3.70968 11.456 4.02858C11.5585 4.17173 11.667 4.30212 11.7368 4.38432L11.7517 4.40275C11.826 4.49062 11.875 4.54873 11.924 4.61393C12.0548 4.78117 12.2405 5.04196 12.294 5.71377V7.8015C11.2306 6.1025 10.3585 4.30098 9.69228 2.427L9.68039 2.39582L9.66851 2.36605C9.48723 1.91393 9.19749 1.25629 8.61652 0.754555C7.93896 0.166365 7.1366 0.00337242 6.40704 0.00337242H3.01927C2.2808 0.00337242 1.39077 0.167783 0.726587 0.835343C0.0742931 1.49298 0 2.28101 0 2.69771V2.88763L0.0416041 3.07188C0.978089 7.22624 2.91126 11.117 5.68937 14.4388C6.95876 16.3485 8.68221 17.9458 10.7199 19.1012C12.7576 20.2567 15.0521 20.9376 17.4173 21.0889L17.4782 21.0932H17.5406C18.6193 21.0932 19.7441 21.0039 20.5896 20.4667C21.7293 19.741 21.8199 18.6284 21.8199 18.0729V16.4599C22.1126 16.6867 22.4752 16.99 22.9194 17.3982C23.4573 17.9113 23.8852 18.3563 24.2522 18.7447L24.4484 18.9516C24.7337 19.2549 25.0145 19.554 25.2701 19.7992C25.591 20.1067 25.9877 20.4455 26.484 20.6963C27.0234 20.967 27.5895 21.0903 28.1898 21.0903H31.579C32.2937 21.0903 33.3175 20.9288 34.0381 20.1322C34.8227 19.2648 34.7632 18.2004 34.5166 17.4365L34.472 17.299L34.4051 17.17ZM25.906 17.3203C25.4456 16.8292 24.9714 16.3499 24.484 15.8831L24.4796 15.8788C22.4633 14.025 21.5227 13.7032 20.857 13.7032C20.5019 13.7032 20.1111 13.7401 19.8571 14.0434C19.744 14.1888 19.6691 14.3579 19.6386 14.5366C19.6032 14.7446 19.5873 14.9552 19.5911 15.1659V18.0729C19.5911 18.4343 19.5287 18.5859 19.3534 18.6965C19.1201 18.8453 18.6223 18.9658 17.554 18.9658C15.5246 18.8341 13.557 18.2448 11.8129 17.2464C10.0688 16.248 8.59797 14.869 7.52144 13.2228L7.50955 13.2043L7.49469 13.1873C4.90659 10.117 3.10367 6.514 2.22879 2.66369C2.23474 2.47944 2.27634 2.36747 2.34469 2.29944C2.41453 2.22857 2.5854 2.12936 3.01927 2.12936H6.40704C6.78296 2.12936 6.9791 2.20873 7.12025 2.3292C7.27775 2.4681 7.41743 2.70196 7.58384 3.11865C8.41593 5.45157 9.53924 7.63425 10.6046 9.23866C11.1365 10.0395 11.6596 10.707 12.1321 11.179C12.3683 11.4143 12.5986 11.6098 12.82 11.7487C13.0325 11.882 13.2747 11.9883 13.5243 11.9883C13.6551 11.9883 13.8081 11.9741 13.9552 11.9132C14.1143 11.8465 14.2451 11.7307 14.3267 11.5843C14.4797 11.3179 14.5228 10.9253 14.5228 10.4108V5.63015C14.4441 4.47078 14.0771 3.81739 13.7205 3.35393C13.6481 3.26131 13.5738 3.17011 13.4976 3.08038L13.4783 3.05771C13.4152 2.98407 13.3547 2.90844 13.297 2.83094C13.2246 2.74383 13.1807 2.63835 13.1707 2.52763C13.1823 2.415 13.2387 2.31089 13.3282 2.23658C13.4177 2.16228 13.5336 2.12342 13.6521 2.12794H18.9938C19.2999 2.12794 19.4024 2.19881 19.4544 2.26542C19.5287 2.35755 19.5911 2.54889 19.5911 2.95141V9.36906C19.5911 10.1316 19.9596 10.6475 20.4945 10.6475C21.1096 10.6475 21.5539 10.2917 22.3295 9.55189L22.3429 9.53772L22.3548 9.52496C24.0949 7.50154 25.5164 5.24696 26.5746 2.83235L26.5806 2.81535C26.6597 2.60175 26.8101 2.41882 27.0087 2.29464C27.2074 2.17047 27.4432 2.1119 27.6801 2.12794H31.0976C31.5612 2.12794 31.7128 2.24133 31.7633 2.30794C31.8153 2.37881 31.8524 2.53046 31.7633 2.8281C30.5429 5.43089 29.0341 7.90165 27.2626 10.1982L27.2507 10.2152C27.0798 10.4661 26.8911 10.7439 26.8644 11.0613C26.8347 11.4043 26.9892 11.7147 27.2611 12.0492C27.4587 12.327 27.8673 12.7083 28.2819 13.0952L28.3205 13.1321C28.7544 13.5374 29.2254 13.9768 29.6028 14.402L29.6132 14.4119L29.6236 14.4232C30.7489 15.4941 31.6847 16.7319 32.3948 18.0884C32.5077 18.4569 32.4393 18.6469 32.3502 18.7447C32.2477 18.858 32.0174 18.9643 31.5805 18.9643H28.1898C27.9586 18.9704 27.7298 18.9191 27.5256 18.8155C27.2756 18.6758 27.0483 18.502 26.851 18.2996C26.6385 18.0969 26.4082 17.8517 26.1259 17.5527L25.906 17.3203Z" fill="#F3E9DD"/>
</svg>
